<svg xmlns="http://www.w3.org/2000/svg" width="53.104" height="33.277" viewBox="0 0 53.104 33.277">
  <path id="behance" d="M0,4.48V37.145H15.833A16.64,16.64,0,0,0,20.1,36.6a11.391,11.391,0,0,0,3.716-1.7A8.335,8.335,0,0,0,26.4,31.943a9.054,9.054,0,0,0,.95-4.282,9.067,9.067,0,0,0-1.477-5.242,7.785,7.785,0,0,0-4.486-3.042,8.142,8.142,0,0,0,3.332-2.694,7.171,7.171,0,0,0,1.119-4.117,8.781,8.781,0,0,0-.747-3.832,6.329,6.329,0,0,0-2.131-2.493,9.3,9.3,0,0,0-3.3-1.346A20.118,20.118,0,0,0,15.4,4.481ZM34.667,6.672V9.895H47.908V6.672ZM7.193,10.044h6.728a9.6,9.6,0,0,1,1.85.162,4.479,4.479,0,0,1,1.584.574,2.977,2.977,0,0,1,1.109,1.136,3.883,3.883,0,0,1,.4,1.875,3.431,3.431,0,0,1-1.228,2.971,5.2,5.2,0,0,1-3.165.918H7.193Zm34.4,2.78a12.284,12.284,0,0,0-4.933.965,11.472,11.472,0,0,0-6.31,6.6,13.873,13.873,0,0,0-.872,4.948,14.454,14.454,0,0,0,.849,5.042,11.647,11.647,0,0,0,2.4,3.941,10.71,10.71,0,0,0,3.819,2.544,13.6,13.6,0,0,0,5.046.9,12.273,12.273,0,0,0,6.848-1.842,10.852,10.852,0,0,0,4.217-6.1h-5.72A4.171,4.171,0,0,1,45.2,31.908a5.8,5.8,0,0,1-3.394.994,5.779,5.779,0,0,1-4.2-1.43A6.619,6.619,0,0,1,36,26.883H53.063a16.752,16.752,0,0,0-.452-5.265,12.822,12.822,0,0,0-2.078-4.49,10.475,10.475,0,0,0-3.689-3.134,11.2,11.2,0,0,0-5.254-1.17Zm-.2,4.905a4.861,4.861,0,0,1,3.676,1.317,6.33,6.33,0,0,1,1.5,3.743H36a7.345,7.345,0,0,1,.3-1.559,4.655,4.655,0,0,1,.87-1.666,5.225,5.225,0,0,1,1.646-1.3,5.582,5.582,0,0,1,2.584-.53Zm-34.2,4.859h7.818a6.066,6.066,0,0,1,3.75,1.07,4.264,4.264,0,0,1,1.417,3.6,4.512,4.512,0,0,1-.431,2.117,3.467,3.467,0,0,1-1.168,1.3,4.775,4.775,0,0,1-1.7.694,9.252,9.252,0,0,1-2.017.2H7.193Z" transform="translate(0 -4.48)"/>
</svg>
