<svg xmlns="http://www.w3.org/2000/svg" width="45.258" height="44.137" viewBox="0 0 45.258 44.137">
  <path id="github" d="M22.629.3a22.63,22.63,0,0,0-7.156,44.1c1.131.213,1.546-.487,1.546-1.088,0-.537-.019-1.961-.028-3.847-6.295,1.365-7.622-3.036-7.622-3.036a6,6,0,0,0-2.517-3.309c-2.05-1.4.158-1.375.158-1.375a4.745,4.745,0,0,1,3.466,2.331c2.018,3.46,5.3,2.461,6.591,1.882A4.824,4.824,0,0,1,18.5,32.926C13.474,32.36,8.192,30.414,8.192,21.744a8.73,8.73,0,0,1,2.329-6.072,8.046,8.046,0,0,1,.2-5.989s1.9-.607,6.223,2.319a21.335,21.335,0,0,1,11.315,0c4.3-2.927,6.195-2.319,6.195-2.319a8.268,8.268,0,0,1,.226,5.989A8.766,8.766,0,0,1,37,21.744c0,8.693-5.29,10.607-10.324,11.164A5.418,5.418,0,0,1,28.2,37.094c0,3.029-.028,5.461-.028,6.2,0,.594.4,1.3,1.556,1.075A22.6,22.6,0,0,0,22.629.3" transform="translate(0 -0.297)"/>
</svg>
