<svg xmlns="http://www.w3.org/2000/svg" width="45.258" height="45.258" viewBox="0 0 45.258 45.258">
  <path id="instagram" d="M22.629,0C16.481,0,15.714.028,13.3.136A16.686,16.686,0,0,0,7.807,1.188,11.082,11.082,0,0,0,3.8,3.8a11.041,11.041,0,0,0-2.61,4.009A16.637,16.637,0,0,0,.136,13.3C.023,15.714,0,16.481,0,22.629s.028,6.915.136,9.329a16.7,16.7,0,0,0,1.052,5.493A11.1,11.1,0,0,0,3.8,41.46a11.066,11.066,0,0,0,4.009,2.61A16.707,16.707,0,0,0,13.3,45.122c2.414.113,3.181.136,9.329.136s6.915-.028,9.329-.136a16.745,16.745,0,0,0,5.493-1.052,11.565,11.565,0,0,0,6.619-6.619,16.7,16.7,0,0,0,1.052-5.493c.113-2.414.136-3.181.136-9.329s-.028-6.915-.136-9.329A16.735,16.735,0,0,0,44.07,7.807,11.106,11.106,0,0,0,41.46,3.8a11.026,11.026,0,0,0-4.009-2.61A16.648,16.648,0,0,0,31.958.136C29.544.023,28.777,0,22.629,0Zm0,4.073c6.04,0,6.76.03,9.146.134a12.468,12.468,0,0,1,4.2.783,7.447,7.447,0,0,1,4.3,4.294,12.494,12.494,0,0,1,.779,4.2c.107,2.387.132,3.1.132,9.146s-.028,6.76-.14,9.146a12.735,12.735,0,0,1-.794,4.2,7.185,7.185,0,0,1-1.7,2.606,7.06,7.06,0,0,1-2.6,1.69,12.586,12.586,0,0,1-4.215.779c-2.4.107-3.11.132-9.163.132s-6.762-.028-9.163-.14a12.832,12.832,0,0,1-4.217-.794,7.008,7.008,0,0,1-2.6-1.7,6.871,6.871,0,0,1-1.7-2.6A12.842,12.842,0,0,1,4.1,31.735c-.085-2.376-.115-3.11-.115-9.135s.03-6.762.115-9.167A12.828,12.828,0,0,1,4.9,9.221a6.708,6.708,0,0,1,1.7-2.6,6.693,6.693,0,0,1,2.6-1.693,12.525,12.525,0,0,1,4.188-.794c2.4-.085,3.111-.113,9.163-.113l.085.057Zm0,6.936a11.62,11.62,0,1,0,11.62,11.62,11.619,11.619,0,0,0-11.62-11.62Zm0,19.163a7.543,7.543,0,1,1,7.543-7.543A7.541,7.541,0,0,1,22.629,30.172Zm14.8-19.621a2.715,2.715,0,1,1-2.715-2.714A2.717,2.717,0,0,1,37.425,10.551Z"/>
</svg>
