<svg xmlns="http://www.w3.org/2000/svg" width="45.258" height="45.258" viewBox="0 0 45.258 45.258">
  <path id="dribbble" d="M22.629,45.258A22.629,22.629,0,1,1,45.258,22.629,22.659,22.659,0,0,1,22.629,45.258ZM41.713,25.725A28.348,28.348,0,0,0,29.674,24.9a83.591,83.591,0,0,1,3.756,13.781,19.386,19.386,0,0,0,8.288-12.955ZM30.181,40.449A80.412,80.412,0,0,0,26.052,25.8l-.124.038C15.009,29.635,11.105,37.2,10.766,37.9a19.278,19.278,0,0,0,19.4,2.55ZM8.269,35.584c.437-.754,5.742-9.532,15.712-12.757.255-.085.509-.158.764-.226-.49-1.1-1.018-2.2-1.569-3.281A71.244,71.244,0,0,1,3.311,22.063l-.008.588A19.269,19.269,0,0,0,8.271,35.579ZM3.706,18.7a71.772,71.772,0,0,0,17.871-2.353A123.466,123.466,0,0,0,14.411,5.165a19.376,19.376,0,0,0-10.7,13.521ZM18.1,3.87a103.137,103.137,0,0,1,7.207,11.315C32.184,12.61,35.1,8.7,35.443,8.2A19.285,19.285,0,0,0,18.1,3.864Zm19.489,6.568c-.411.547-3.649,4.7-10.794,7.618.453.924.886,1.857,1.282,2.8.151.339.283.679.415,1a45.253,45.253,0,0,1,13.464.622A19.129,19.129,0,0,0,37.6,10.449Z"/>
</svg>
